# xmcd
#
# Track frame offsets:
# 150
# 8633
# 25586
# 41982
# 57988
# 75610
# 93845
# 111411
# 130956
#
# Disc length: 2031 seconds
#
#
# Revision: 0
# Processed by: cddbd v1.5PL3 Copyright (c) Steve Scherf et al.
# Submitted via: FreeRIP 2.51 
#
DISCID=6b07ed09
DTITLE=Eternity - from Video
DYEAR=1900
DGENRE=
TTITLE0=Yes He Knows
TTITLE1=Someone
TTITLE2=It is No Secret
TTITLE3=He Still Speaks
TTITLE4=Hear Kitty, Kitty
TTITLE5=There Is A River
TTITLE6=O What A Saviour
TTITLE7=Look For Me
TTITLE8=I Do Believe
EXTD=
EXTT0=
EXTT1=
EXTT2=
EXTT3=
EXTT4=
EXTT5=
EXTT6=
EXTT7=
EXTT8=
PLAYORDER=
